<svg id="Capa_1" enable-background="new 0 0 512 512" height="512" viewBox="0 0 512 512" width="512" xmlns="http://www.w3.org/2000/svg"><g><g><path d="m444.581 501.851v-96.303c0-26.146-16.692-49.374-41.473-57.712l-22.28-7.497-9.532 12.016-10.184-18.65-46.127-15.521c-8.26-2.779-13.824-10.522-13.824-19.237v-33.052h-90.323v33.052c0 8.715-5.564 16.458-13.824 19.237l-88.122 29.651c-24.781 8.338-41.473 31.566-41.473 57.712v96.303c0 5.605 4.544 10.149 10.149 10.149h356.864c5.605.001 10.149-4.543 10.149-10.148z" fill="#b3e59f"/><g><path d="m403.108 347.836-22.28-7.497-9.532 12.016-10.184-18.65-46.127-15.521c-8.26-2.779-13.824-10.522-13.824-19.237v-33.053h-90.323v15.223h59.877v33.053c0 8.715 5.564 16.458 13.824 19.237l88.122 29.651c24.781 8.338 41.473 31.566 41.473 57.713v91.229h20.297c5.605 0 10.149-4.544 10.149-10.149v-96.303c.001-26.146-16.691-49.374-41.472-57.712z" fill="#95d6a4"/></g><path d="m196.331 318.415 57.813 57.813c1.585 1.585 4.156 1.585 5.741 0l57.302-57.302-2.202-.741c-8.26-2.779-13.824-10.522-13.824-19.237v-33.053h-90.323v33.053c0 8.715-5.564 16.458-13.824 19.237z" fill="#f1ccbd"/><path d="m314.986 318.185c-8.26-2.779-13.824-10.522-13.824-19.237v-33.053h-30.446v33.053c-.06 6.117 2.943 12.049 7.685 15.924 3.673 3.001 3.807 8.588.453 11.942l-37.062 37.062 12.353 12.352c1.585 1.585 4.156 1.585 5.741 0l57.302-57.302z" fill="#eaad9c"/><g><path d="m372.815 137.007h-233.63v-86.264c0-28.024 22.719-50.743 50.744-50.743h132.143c28.025 0 50.743 22.719 50.743 50.743z" fill="#c17d4f"/><path d="m322.071 0h-30.446c28.025 0 50.743 22.719 50.743 50.743v86.264h30.446v-86.264c.001-28.024-22.718-50.743-50.743-50.743z" fill="#b16e3d"/><path d="m380.817 166.98h-8.003v-45.204h8.003c12.483 0 22.602 10.119 22.602 22.602 0 12.483-10.119 22.602-22.602 22.602z" fill="#eaad9c"/><path d="m131.183 166.98h8.003v-45.204h-8.003c-12.483 0-22.602 10.119-22.602 22.602 0 12.483 10.119 22.602 22.602 22.602z" fill="#eaad9c"/><g><path d="m255.587 300.898c-64.561-.223-116.402-53.52-116.402-118.082v-61.032c23.291.069 58.285-2.878 96.979-18.463 18.05-7.27 33.209-15.801 45.503-23.958 2.659-1.764 6.215-1.142 8.171 1.38 6.183 7.973 16.569 19.011 32.317 27.751 21.199 11.764 41.035 13.216 50.659 13.29 0 8.093-7.706 24.915-7.706 24.915s7.706 13.31 7.706 20.282v17.104c0 48.489-29.544 90.078-71.613 107.748-5.103 2.143-17.475.664-17.475.664s-8.008 6.855-12.991 7.483c-4.959.623-10.015.936-15.148.918z" fill="#f1ccbd"/></g><g><path d="m342.369 117.085v51.777c0 64.652-52.523 117.038-117.227 116.814-12.364-.043-24.259-2.038-35.416-5.68 18.698 13.086 41.362 20.819 65.862 20.903 64.705.224 117.227-52.162 117.227-116.814 0-20.767 0-41.534 0-62.3-6.45-.051-17.488-.725-30.446-4.7z" fill="#eaad9c"/></g><g><g><path d="m309.28 171.445c-4.204 0-7.612-3.408-7.612-7.611v-18.849c0-4.204 3.408-7.611 7.612-7.611s7.611 3.408 7.611 7.611v18.849c.001 4.204-3.407 7.611-7.611 7.611z" fill="#655e67"/></g><g><path d="m202.72 171.445c-4.204 0-7.611-3.408-7.611-7.611v-18.849c0-4.204 3.408-7.611 7.611-7.611 4.204 0 7.611 3.408 7.611 7.611v18.849c0 4.204-3.408 7.611-7.611 7.611z" fill="#655e67"/></g></g><g><path d="m256.007 249.861c-9.929 0-17.294-4.139-20.879-6.679-3.43-2.431-4.24-7.181-1.809-10.611s7.181-4.24 10.611-1.809c2.168 1.537 6.714 4.087 12.817 3.863 5.392-.193 9.404-2.5 11.316-3.858 3.427-2.434 8.178-1.629 10.613 1.797 2.435 3.427 1.63 8.179-1.797 10.613-4.03 2.863-10.7 6.343-19.587 6.661-.432.015-.861.023-1.285.023z" fill="#eaad9c"/></g></g><path d="m364.451 416.539c1.17.65 2.437.958 3.687.958 2.675 0 5.272-1.414 6.662-3.919 4.983-8.978 10.977-23.562 11.234-42.06.167-12.056-2.118-22.552-5.206-31.178l-19.715-6.634c4.698 8.276 9.927 21.214 9.699 37.601-.212 15.333-5.186 27.434-9.322 34.884-2.041 3.675-.715 8.308 2.961 10.348z" fill="#dfdce0"/><path d="m380.828 340.339-19.715-6.634c3.799 6.693 7.943 16.437 9.27 28.586l2.28.767c4.771 1.606 9.239 3.768 13.349 6.392-.107-11.183-2.276-20.985-5.184-29.111z" fill="#c7c2c9"/><path d="m129.193 407.066c1.222 2.917 4.048 4.674 7.024 4.674.98 0 1.976-.19 2.936-.592 3.878-1.623 5.705-6.083 4.082-9.96-3.582-8.558-5.599-17.525-5.993-26.654-.72-16.649 4.137-30.264 8.653-39.148l-19.132 6.438c-3.075 9.246-5.284 20.539-4.729 33.368.471 10.929 2.88 21.653 7.159 31.874z" fill="#dfdce0"/><circle cx="371.296" cy="436.9" fill="#f1eff1" r="32.773"/><g><path d="m158.213 477.284h-8.53c-4.204 0-7.611-3.408-7.611-7.612s3.408-7.612 7.611-7.612h7.204v-29.65c0-11.398-9.274-20.672-20.672-20.672s-20.672 9.274-20.672 20.672v29.651h7.204c4.204 0 7.611 3.408 7.611 7.612s-3.408 7.612-7.611 7.612h-8.53c-7.663 0-13.896-6.234-13.896-13.897v-30.978c0-19.792 16.103-35.895 35.895-35.895s35.895 16.103 35.895 35.895v30.977c-.001 7.664-6.236 13.897-13.898 13.897z" fill="#f1eff1"/></g></g><g fill="#95d6a4"><circle cx="256" cy="413.051" r="7.611"/><circle cx="256" cy="458.72" r="7.611"/><circle cx="256" cy="504.388" r="7.611"/></g></g></svg>