<svg id="Capa_1" enable-background="new 0 0 512 512" height="512" viewBox="0 0 512 512" width="512" xmlns="http://www.w3.org/2000/svg"><g><g><g><path d="m380.967 501.851v-96.303c0-26.146-16.692-49.374-41.473-57.712l-88.122-29.651c-8.26-2.779-13.824-10.522-13.824-19.237v-33.052h-90.323v33.052c0 8.715-5.564 16.458-13.824 19.237l-88.122 29.651c-24.781 8.338-41.473 31.566-41.473 57.712v96.303c0 5.605 4.544 10.149 10.149 10.149h356.864c5.605 0 10.148-4.544 10.148-10.149z" fill="#e5979d"/><g><path d="m339.494 347.836-88.122-29.651c-8.26-2.779-13.824-10.522-13.824-19.237v-33.053h-90.323v15.223h59.877v33.053c0 8.715 5.564 16.458 13.824 19.237l88.122 29.651c24.781 8.338 41.473 31.566 41.473 57.713v91.228h20.297c5.605 0 10.149-4.544 10.149-10.149v-96.303c0-26.146-16.691-49.374-41.473-57.712z" fill="#e17f85"/></g><path d="m192.387 379.56c36.386 0 67.522-22.406 80.413-54.166l-21.427-7.21c-8.26-2.779-13.824-10.522-13.824-19.237v-33.053h-90.323v33.053c0 8.715-5.564 16.458-13.824 19.237l-21.427 7.21c12.889 31.76 44.025 54.166 80.412 54.166z" fill="#f1ccbd"/><path d="m207.102 314.17c0 8.715 5.564 16.458 13.824 19.237l39.437 13.27c5.094-6.421 9.307-13.573 12.436-21.283l-21.427-7.21c-8.26-2.779-13.824-10.522-13.824-19.237v-33.053h-90.323v15.223h59.877z" fill="#eaad9c"/><g><path d="m309.201 137.007h-233.629v-86.264c0-28.024 22.718-50.743 50.743-50.743h132.143c28.025 0 50.743 22.719 50.743 50.743z" fill="#655e67"/><path d="m258.458 0h-30.446c28.025 0 50.743 22.719 50.743 50.743v86.264h30.446v-86.264c0-28.024-22.718-50.743-50.743-50.743z" fill="#544f56"/><path d="m317.204 166.98h-8.003v-45.204h8.003c12.483 0 22.602 10.119 22.602 22.602 0 12.483-10.119 22.602-22.602 22.602z" fill="#f1ccbd"/><path d="m67.569 166.98h8.003v-45.204h-8.003c-12.483 0-22.602 10.119-22.602 22.602 0 12.483 10.119 22.602 22.602 22.602z" fill="#eaad9c"/><g><path d="m191.974 300.898c-64.561-.223-116.402-53.52-116.402-118.082v-61.032c23.291.069 58.285-2.878 96.979-18.463 18.05-7.27 33.209-15.801 45.503-23.958 2.659-1.764 6.215-1.142 8.171 1.38 6.183 7.973 16.569 19.011 32.317 27.751 21.199 11.764 41.035 13.216 50.659 13.29v62.3c0 48.504-29.563 90.104-71.653 107.764-4.863 2.04-16.866.572-16.866.572s-8.438 6.921-13.735 7.58c-4.903.61-9.901.916-14.973.898z" fill="#f1ccbd"/></g><g><path d="m278.755 117.085v51.777c0 64.652-52.523 117.038-117.227 116.814-12.364-.043-24.259-2.038-35.416-5.68 18.698 13.086 41.362 20.819 65.862 20.903 11.065.038 21.775-1.462 31.926-4.299 49.207-13.753 85.302-58.919 85.302-112.515 0-20.767 0-41.534 0-62.3-6.45-.051-17.489-.725-30.447-4.7z" fill="#eaad9c"/></g><g><path d="m175.922 249.861c-2.385 0-4.733-1.117-6.217-3.211-2.431-3.43-1.62-8.18 1.809-10.611 3.737-2.649 11.563-7.048 22.165-6.656 8.886.318 15.556 3.798 19.586 6.661 3.427 2.435 4.231 7.186 1.797 10.613-2.434 3.428-7.186 4.232-10.613 1.797-1.911-1.358-5.923-3.665-11.315-3.858-6.096-.22-10.649 2.326-12.818 3.863-1.335.947-2.872 1.402-4.394 1.402z" fill="#eaad9c"/></g><g><g><path d="m257.601 169.779c-2.259 0-4.495-1.001-5.996-2.917l-5.938-7.577-5.938 7.577c-2.594 3.309-7.378 3.889-10.686 1.296-3.309-2.593-3.889-7.377-1.296-10.686l8.734-11.145c2.227-2.842 5.575-4.472 9.186-4.472s6.959 1.63 9.186 4.472l8.734 11.145c2.593 3.309 2.012 8.093-1.296 10.686-1.393 1.092-3.047 1.621-4.69 1.621z" fill="#655e67"/></g><g><path d="m151.04 169.779c-2.259 0-4.495-1.001-5.996-2.917l-5.938-7.577-5.938 7.577c-2.593 3.309-7.378 3.889-10.686 1.296-3.309-2.593-3.889-7.377-1.296-10.686l8.734-11.145c2.227-2.842 5.575-4.472 9.186-4.472s6.959 1.63 9.186 4.472l8.734 11.145c2.593 3.309 2.012 8.093-1.296 10.686-1.393 1.092-3.047 1.621-4.69 1.621z" fill="#655e67"/></g></g></g></g></g><path d="m485.867 198.68v-147.429c0-15.974-12.95-28.924-28.924-28.924-15.974 0-28.924 12.95-28.924 28.924v147.428c0 1.901-.901 3.677-2.405 4.841-12.334 9.541-20.2 24.577-19.915 41.442.456 27 22.261 49.301 49.245 50.326 29.215 1.11 53.249-22.244 53.249-51.213 0-16.507-7.807-31.186-19.927-40.559-1.501-1.161-2.399-2.937-2.399-4.836z" fill="#f7f6f7"/><path d="m488.268 203.517c-1.502-1.162-2.4-2.938-2.4-4.837v-147.429c0-15.974-12.95-28.924-28.924-28.924-3.333 0-6.531.571-9.511 1.609 11.3 3.935 19.413 14.674 19.413 27.315v147.429c0 1.899.898 3.675 2.4 4.837 12.12 9.373 19.927 24.052 19.927 40.558 0 25.059-17.989 45.903-41.755 50.358 2.454.467 4.968.758 7.529.855 29.215 1.111 53.249-22.244 53.249-51.213-.002-16.506-7.809-31.185-19.928-40.558z" fill="#e2dfe3"/><g><path d="m456.944 230.882c-4.204 0-7.612-3.408-7.612-7.611v-149.346c0-4.204 3.408-7.611 7.612-7.611s7.611 3.408 7.611 7.611v149.346c0 4.203-3.408 7.611-7.611 7.611z" fill="#e5979d"/></g><g><g><path d="m397.574 81.536h-18.847c-4.204 0-7.612-3.408-7.612-7.611s3.408-7.611 7.612-7.611h18.847c4.204 0 7.612 3.408 7.612 7.611s-3.409 7.611-7.612 7.611z" fill="#f7f6f7"/></g><g><path d="m397.574 111.982h-18.847c-4.204 0-7.612-3.408-7.612-7.611s3.408-7.611 7.612-7.611h18.847c4.204 0 7.612 3.408 7.612 7.611s-3.409 7.611-7.612 7.611z" fill="#f7f6f7"/></g><g><path d="m397.574 142.428h-18.847c-4.204 0-7.612-3.408-7.612-7.611s3.408-7.611 7.612-7.611h18.847c4.204 0 7.612 3.408 7.612 7.611s-3.409 7.611-7.612 7.611z" fill="#f7f6f7"/></g><g><path d="m397.574 172.874h-18.847c-4.204 0-7.612-3.408-7.612-7.611 0-4.204 3.408-7.611 7.612-7.611h18.847c4.204 0 7.612 3.408 7.612 7.611-.001 4.203-3.409 7.611-7.612 7.611z" fill="#f7f6f7"/></g></g><circle cx="456.944" cy="244.075" fill="#e5979d" r="20.805"/></g></svg>